<svg width="107" height="27" viewBox="0 0 107 27" fill="none" xmlns="http://www.w3.org/2000/svg">
<mask id="mask0_13_98" style="mask-type:luminance" maskUnits="userSpaceOnUse" x="0" y="0" width="107" height="27">
<path d="M23.7005 19.7413C22.9515 19.7413 22.363 20.2763 22.3095 21.0253V21.7743V21.8813C22.3095 22.6303 21.6675 23.2723 20.9185 23.2723C20.1695 23.2723 19.5275 22.6303 19.5275 21.8813V12.5723C19.5275 10.6998 18.7785 8.93433 17.4945 7.65033C16.585 6.74083 15.408 6.09883 14.124 5.77783C14.017 6.15233 13.9635 6.58033 13.9635 7.00833V8.66683C15.5685 9.25533 16.7455 10.8068 16.7455 12.6258V21.9348C16.7455 24.2353 18.618 26.1078 20.9185 26.1078C23.219 26.1078 25.0915 24.2353 25.0915 21.9348V21.8278V21.1858C25.038 20.3298 24.4495 19.7413 23.7005 19.7413Z" fill="url(#paint0_linear_13_98)"/>
<path d="M23.0585 2.033C21.7745 0.749 19.9555 0 18.1365 0C17.334 0 16.5315 0.1605 15.7825 0.428C17.9225 0.963 19.8485 2.0865 21.4535 3.6915C23.647 5.885 24.931 8.774 25.0915 11.877C25.0915 11.8235 25.0915 11.7165 25.0915 11.663V6.955C25.0915 5.136 24.3425 3.3705 23.0585 2.033Z" fill="url(#paint1_linear_13_98)"/>
<path opacity="0.6" d="M14.124 5.77783C15.408 6.09883 16.5315 6.68733 17.4945 7.65033C18.7785 8.93433 19.5275 10.7533 19.5275 12.5723V16.7453C19.5275 17.2268 19.26 17.7083 18.832 17.9223H17.3875C16.9595 17.6548 16.692 17.2268 16.692 16.7453V12.5723V9.79033C16.7455 7.97133 15.729 6.36633 14.124 5.77783Z" fill="url(#paint2_linear_13_98)"/>
<path d="M12.5725 14.0168C11.8235 14.0168 11.1815 13.3748 11.1815 12.6258V19.6343C11.1815 21.9348 9.309 23.8073 7.0085 23.8073C4.708 23.8073 2.8355 21.9348 2.8355 19.6343V12.5723C2.8355 10.0043 3.852 7.4898 5.671 5.6708C7.49 3.8518 10.0045 2.8353 12.5725 2.8353C12.7865 2.5678 13.0005 2.3003 13.2145 2.0863C13.9635 1.3373 14.8195 0.802304 15.7825 0.481304C14.766 0.213804 13.696 0.0533038 12.5725 0.0533038C9.202 -0.000196248 6.0455 1.3373 3.6915 3.6913C1.3375 6.0453 0 9.2018 0 12.5723V19.6343C0 21.5068 0.749 23.2723 2.033 24.5563C3.317 25.8403 5.136 26.5893 6.955 26.5893C8.8275 26.5893 10.593 25.8403 11.877 24.5563C13.161 23.2723 13.91 21.4533 13.91 19.6343V12.6258C13.9635 13.3748 13.3215 14.0168 12.5725 14.0168Z" fill="url(#paint3_linear_13_98)"/>
<path d="M5.56396 12.5724V19.5809C5.56396 20.3299 6.20597 20.9719 6.95496 20.9719C7.70396 20.9719 8.34597 20.3299 8.34597 19.5809V12.5724C8.34597 10.7534 9.52296 9.2019 11.128 8.6134V6.9549C11.128 6.5269 11.1815 6.0989 11.235 5.6709C9.84397 5.9384 8.55996 6.5804 7.59696 7.5969C6.31296 8.9344 5.56396 10.6999 5.56396 12.5724Z" fill="url(#paint4_linear_13_98)"/>
<path d="M22.3095 6.95523C22.3095 4.65473 20.437 2.78223 18.1365 2.78223C17.334 2.78223 16.585 2.99623 15.943 3.37073C17.227 3.85223 18.4575 4.60123 19.4205 5.61773C21.079 7.27623 22.0955 9.57673 22.256 11.9307" fill="url(#paint5_linear_13_98)"/>
<path d="M12.5725 8.34619C12.091 8.34619 11.6095 8.45319 11.1815 8.56019V9.41619V12.5727V16.2642H13.9635V12.5727V8.56019C13.482 8.45319 13.054 8.34619 12.5725 8.34619Z" fill="url(#paint6_linear_13_98)"/>
<path d="M3.6915 6.47345C1.3375 8.82745 0 11.9839 0 15.3544V19.0459H2.782V12.5189C2.782 9.95095 3.7985 7.43645 5.6175 5.61745C7.169 4.06595 9.202 3.10295 11.342 2.83545C8.5065 3.15645 5.778 4.38695 3.6915 6.47345Z" fill="url(#paint7_linear_13_98)"/>
<path d="M11.128 14.231V19.6345C11.128 19.688 11.128 19.7415 11.128 19.795C11.0745 21.5605 10.379 23.2725 9.09497 24.5565C8.13197 25.5195 6.90146 26.1615 5.56396 26.4825C6.04546 26.5895 6.47347 26.643 6.95497 26.643C8.82747 26.643 10.593 25.894 11.877 24.61C13.161 23.326 13.91 21.507 13.91 19.688V14.231H11.128Z" fill="url(#paint8_linear_13_98)"/>
<path d="M12.5725 5.56423C13.1075 5.56423 13.6425 5.61773 14.124 5.72473C14.445 4.70823 15.087 3.90573 15.943 3.37073C14.873 2.99623 13.696 2.78223 12.5725 2.78223C11.9305 3.63823 11.5025 4.65473 11.2885 5.67123C11.7165 5.61773 12.1445 5.56423 12.5725 5.56423Z" fill="url(#paint9_linear_13_98)"/>
<path d="M14.124 5.77818C13.589 5.67118 13.1075 5.61768 12.5725 5.61768C12.1445 5.61768 11.7165 5.67118 11.2885 5.72468C11.235 6.15268 11.1815 6.58068 11.1815 7.00868V8.66718C11.6095 8.50668 12.091 8.45318 12.5725 8.45318C13.054 8.45318 13.5355 8.56018 13.9635 8.66718V6.95518C13.9635 6.52718 14.017 6.15268 14.124 5.77818Z" fill="#244876"/>
<path d="M23.7005 13.0537C24.396 13.0537 24.9845 12.5187 25.0915 11.8767C24.931 8.77374 23.5935 5.88473 21.4 3.69123C19.795 2.08623 17.869 1.01623 15.729 0.427734C14.766 0.748734 13.91 1.33723 13.161 2.03273C12.947 2.24673 12.733 2.51423 12.519 2.78173C13.696 2.78173 14.8195 2.99573 15.8895 3.37023C16.5315 2.99573 17.2805 2.78173 18.083 2.78173C20.3835 2.78173 22.256 4.65423 22.256 6.95473V11.9302C22.47 12.5722 23.005 13.0537 23.7005 13.0537Z" fill="#253777"/>
<path d="M25.0379 11.5563C24.8239 9.04179 23.8609 6.63429 22.3094 4.65479V6.95529V11.9308C22.4699 12.5728 23.0049 13.0543 23.7004 13.0543C24.3959 13.0543 24.9844 12.5193 25.0914 11.8773C25.0914 11.7703 25.0914 11.6633 25.0379 11.5563Z" fill="url(#paint10_linear_13_98)"/>
<path d="M23.7004 17.762C24.4687 17.762 25.0914 17.1392 25.0914 16.371C25.0914 15.6028 24.4687 14.98 23.7004 14.98C22.9322 14.98 22.3094 15.6028 22.3094 16.371C22.3094 17.1392 22.9322 17.762 23.7004 17.762Z" fill="url(#paint11_linear_13_98)"/>
<path d="M25.0915 6.95466C25.0915 5.08216 24.3425 3.31666 23.0585 2.03266C22.0955 1.06966 20.865 0.427656 19.5275 0.160156C21.1325 0.748656 22.3095 2.35366 22.3095 4.17266V4.65416C23.9145 6.63366 24.8775 9.30866 25.0915 11.8232C25.145 11.7162 25.0915 11.2882 25.0915 11.1277V6.95466Z" fill="url(#paint12_linear_13_98)"/>
<path d="M40.1251 17.7088C39.2156 17.7088 38.7876 17.2808 38.7876 16.3178V10.4328C38.7876 7.75779 37.8246 6.74129 35.5241 6.74129C33.5981 6.74129 32.5281 7.81129 32.5281 10.4328V17.7088H31.7256C30.9231 17.7088 30.3881 17.2273 30.3881 16.2108V10.3258C30.3881 6.74129 32.5281 4.65479 35.7916 4.65479C39.0016 4.65479 40.9276 6.47379 40.9276 10.3258V17.7088H40.1251Z" fill="white"/>
<path d="M48.3105 12.3053H45.154C45.368 14.4453 46.866 15.9433 49.22 15.9433C51.1995 15.9433 52.3765 15.3013 53.072 14.6058H53.179V15.5688C53.179 16.9063 51.7345 17.9228 48.899 17.9228C45.368 17.9228 42.907 15.1943 42.907 11.5563C42.907 7.43679 45.475 4.65479 48.899 4.65479C51.36 4.65479 53.714 6.52729 53.714 9.09529C53.714 11.3423 52.6975 12.3053 48.3105 12.3053ZM48.685 6.63429C46.5985 6.63429 45.261 8.39979 45.154 10.0583V10.5933L48.043 10.5398C51.146 10.4863 51.681 10.2188 51.681 9.25578C51.6275 7.86478 50.6645 6.63429 48.685 6.63429Z" fill="white"/>
<path d="M58.1545 4.92179H62.5415V5.61729C62.5415 6.41979 62.0065 6.95479 60.883 6.95479H58.1545V13.2678C58.1545 15.0868 58.85 15.8358 60.241 15.8358C61.0435 15.8358 61.7925 15.7823 62.274 15.4613H62.381V16.2103C62.381 17.2803 61.525 17.8688 60.0805 17.8688C57.245 17.8688 56.0145 16.3708 56.0145 13.4283V5.18929C56.0145 4.44029 56.2285 3.74479 56.5495 3.20979C56.8705 2.78179 57.566 2.30029 57.887 2.30029H58.1545V4.92179Z" fill="white"/>
<path d="M65.377 3.15616C64.5745 3.15616 63.879 2.46066 63.879 1.65816C63.879 0.855656 64.5745 0.160156 65.377 0.160156C66.1795 0.160156 66.8215 0.855656 66.8215 1.65816C66.8215 2.46066 66.1795 3.15616 65.377 3.15616ZM68.052 17.8152C65.5375 17.8152 64.2 16.5847 64.2 14.0167V4.92166H64.8955C65.6445 4.92166 66.3935 5.51016 66.3935 6.63366V13.7492C66.3935 15.3542 67.196 15.8357 68.373 15.8357H69.2825V16.5312C69.2825 17.3337 68.801 17.8152 68.052 17.8152Z" fill="white"/>
<path d="M75.863 17.9224C72.7065 17.9224 69.978 15.0334 69.978 11.4489C69.978 7.06195 72.011 4.65445 75.5955 4.65445C77.147 4.65445 78.538 5.34995 79.4475 7.11545V0.481445H80.036C81.106 0.481445 81.641 1.06995 81.641 2.24695V10.9139C81.6945 15.8359 79.8755 17.9224 75.863 17.9224ZM75.7025 6.68745C73.4555 6.68745 72.225 8.39945 72.225 11.2884C72.225 13.8564 73.83 15.8894 76.077 15.8894C78.3775 15.8894 79.4475 14.6589 79.4475 11.5024C79.4475 9.20195 78.752 6.68745 75.7025 6.68745Z" fill="white"/>
<path d="M89.0776 12.3053H85.9211C86.1351 14.4453 87.6331 15.9433 89.9871 15.9433C91.9666 15.9433 93.1436 15.3013 93.8391 14.6058H93.9461V15.5688C93.9461 16.9063 92.5016 17.9228 89.6661 17.9228C86.1351 17.9228 83.6741 15.1943 83.6741 11.5563C83.6741 7.43679 86.2421 4.65479 89.6661 4.65479C92.1271 4.65479 94.4811 6.52729 94.4811 9.09529C94.5346 11.3423 93.4646 12.3053 89.0776 12.3053ZM89.4521 6.63429C87.3656 6.63429 86.0281 8.39979 85.9211 10.0583V10.5933L88.8101 10.5398C91.9131 10.4863 92.4481 10.2188 92.4481 9.25578C92.3946 7.86478 91.4316 6.63429 89.4521 6.63429Z" fill="white"/>
<path d="M101.596 12.3053H98.44C98.654 14.4453 100.152 15.9433 102.506 15.9433C104.485 15.9433 105.662 15.3013 106.358 14.6058H106.465V15.5688C106.465 16.9063 105.02 17.9228 102.185 17.9228C98.654 17.9228 96.193 15.1943 96.193 11.5563C96.193 7.43679 98.761 4.65479 102.185 4.65479C104.646 4.65479 107 6.52729 107 9.09529C107 11.3423 105.93 12.3053 101.596 12.3053ZM101.917 6.63429C99.831 6.63429 98.4935 8.39979 98.3865 10.0583V10.5933L101.275 10.5398C104.378 10.4863 104.913 10.2188 104.913 9.25578C104.913 7.86478 103.95 6.63429 101.917 6.63429Z" fill="white"/>
<path d="M62.3276 21.079V23.1655H63.9326V23.433H62.3276V24.931H62.0601V20.8115H64.4141V21.079H62.3276Z" fill="#E3E3E3"/>
<path d="M67.303 24.9844H67.2495C66.7145 24.9844 66.233 24.7169 65.8585 24.3424C65.484 23.9144 65.27 23.3794 65.27 22.8444C65.27 22.2559 65.484 21.7209 65.8585 21.3464C66.233 20.9719 66.7145 20.7579 67.2495 20.7044H67.303C67.838 20.7044 68.3195 20.9719 68.694 21.3464C69.0685 21.7744 69.2825 22.3094 69.2825 22.8444C69.2825 23.4329 69.0685 23.9679 68.694 24.3424C68.3195 24.7169 67.838 24.9844 67.303 24.9844ZM67.2495 20.9719C66.2865 20.9719 65.484 21.8279 65.484 22.8444C65.484 23.8609 66.2865 24.7169 67.2495 24.7169C68.2125 24.7169 69.015 23.8609 69.015 22.8444C69.015 21.8279 68.266 20.9719 67.2495 20.9719ZM66.661 20.1159H66.982V19.7949H66.661V20.1159ZM67.5705 20.1159H67.8915V19.7949H67.5705V20.1159Z" fill="#E3E3E3"/>
<path d="M72.1715 23.4332L73.0275 24.9312H72.76L71.904 23.4867C71.5295 23.5402 71.1015 23.4332 70.8875 23.3797V24.9312H70.62V20.9187L70.727 20.8652C70.7805 20.8652 72.0645 20.4372 72.76 20.9722C73.081 21.1862 73.2415 21.5607 73.2415 22.0957C73.2415 22.6307 73.081 22.9517 72.76 23.2192C72.5995 23.3262 72.3855 23.3797 72.1715 23.4332ZM72.5995 22.9517C72.867 22.7912 72.974 22.4702 72.974 22.0957C72.974 21.7212 72.867 21.4002 72.5995 21.2397C72.0645 20.8652 71.2085 21.0257 70.8875 21.1327V23.1122C71.155 23.1657 72.0645 23.3797 72.5995 22.9517Z" fill="#E3E3E3"/>
<path d="M77.254 24.2888C76.8795 24.6633 76.3445 24.8773 75.8095 24.8773H74.579V20.7578H75.8095C76.3445 20.7578 76.8795 20.9718 77.254 21.3463C77.6285 21.7208 77.8425 22.2558 77.8425 22.7908C77.8425 23.3793 77.6285 23.9143 77.254 24.2888ZM77.575 22.8443C77.575 21.8813 76.7725 21.0253 75.756 21.0253H74.793V24.6098H75.756C76.7725 24.6633 77.575 23.8608 77.575 22.8443Z" fill="#E3E3E3"/>
<path d="M81.5876 24.6635V24.931H79.1801V20.8115H81.5341V21.079H79.4476V23.1655H81.0526V23.433H79.4476V24.6635H81.5876Z" fill="#E3E3E3"/>
<path d="M84.4765 23.4332L85.3325 24.9312H85.065L84.209 23.4867C83.8345 23.5402 83.4065 23.4332 83.1925 23.3797V24.9312H82.925V20.9187L83.032 20.8652C83.0855 20.8652 84.3695 20.4372 85.065 20.9722C85.386 21.1862 85.5465 21.5607 85.5465 22.0957C85.5465 22.6307 85.386 22.9517 85.065 23.2192C84.851 23.3262 84.6905 23.3797 84.4765 23.4332ZM84.9045 22.9517C85.172 22.7912 85.279 22.4702 85.279 22.0957C85.279 21.7212 85.172 21.4002 84.9045 21.2397C84.3695 20.8652 83.5135 21.0257 83.1925 21.1327V23.1122C83.46 23.1657 84.3695 23.3797 84.9045 22.9517Z" fill="#E3E3E3"/>
<path d="M88.061 24.9845C87.312 24.9845 86.7235 24.396 86.7235 23.647V20.8115H86.991V23.647C86.991 24.2355 87.4725 24.717 88.061 24.717C88.6495 24.717 89.131 24.2355 89.131 23.647V20.8115H89.3985V23.647C89.3985 24.3425 88.81 24.9845 88.061 24.9845Z" fill="#E3E3E3"/>
<path d="M93.6785 20.8115V24.931H93.4645L90.95 21.3465V24.931H90.6825V20.8115H90.8965L93.3575 24.3425V20.8115H93.6785Z" fill="#E3E3E3"/>
<path d="M98.3865 24.2891L98.333 24.3961C98.2795 24.4496 98.226 24.5031 98.119 24.5566C97.798 24.8241 97.37 24.9846 96.942 24.9846H96.8885H96.835C96.3 24.9846 95.8185 24.7171 95.444 24.3426C95.0695 23.9681 94.8555 23.4331 94.8555 22.8446C94.8555 22.2561 95.0695 21.7211 95.444 21.3466C95.8185 20.9721 96.3 20.7581 96.835 20.7046H96.8885C97.4235 20.7046 97.905 20.9721 98.2795 21.3466L98.333 21.4001L98.119 21.5606C97.798 21.2396 97.37 21.0256 96.8885 20.9721C95.9255 20.9721 95.123 21.8281 95.123 22.8446C95.123 23.8611 95.9255 24.6636 96.8885 24.7171C97.37 24.7171 97.798 24.5031 98.119 24.1821V23.4331H96.7815V23.1656H98.3865V24.2891Z" fill="#E3E3E3"/>
<path d="M102.131 24.6635V24.931H99.724V20.8115H102.078V21.079H99.9915V23.1655H101.596V23.433H99.9915V24.6635H102.131Z" fill="#E3E3E3"/>
<path d="M106.412 20.8115V24.931H106.198L103.683 21.3465V24.931H103.416V20.8115H103.63L106.091 24.3425V20.8115H106.412Z" fill="#E3E3E3"/>
</mask>
<g mask="url(#mask0_13_98)">
<rect width="107" height="26.75" fill="white"/>
</g>
<defs>
<linearGradient id="paint0_linear_13_98" x1="21.4572" y1="26.2592" x2="17.7768" y2="4.51095" gradientUnits="userSpaceOnUse">
<stop stop-color="#8AC279"/>
<stop offset="0.2763" stop-color="#88C27C"/>
<stop offset="0.4681" stop-color="#83C185"/>
<stop offset="0.6342" stop-color="#7AC094"/>
<stop offset="0.7858" stop-color="#6EBEAA"/>
<stop offset="0.9261" stop-color="#5DBCC6"/>
<stop offset="1" stop-color="#53BAD8"/>
</linearGradient>
<linearGradient id="paint1_linear_13_98" x1="20.4241" y1="-0.546182" x2="20.4241" y2="23.5642" gradientUnits="userSpaceOnUse">
<stop stop-color="#693388"/>
<stop offset="1" stop-color="#3FB8EA"/>
</linearGradient>
<linearGradient id="paint2_linear_13_98" x1="16.8309" y1="18.176" x2="16.8309" y2="5.3898" gradientUnits="userSpaceOnUse">
<stop stop-color="#8BC270" stop-opacity="0"/>
<stop offset="1" stop-color="#4F5C96"/>
</linearGradient>
<linearGradient id="paint3_linear_13_98" x1="10.9207" y1="-3.61161" x2="2.99311" y2="35.3658" gradientUnits="userSpaceOnUse">
<stop offset="0.054395" stop-color="#53BAD8"/>
<stop offset="0.7384" stop-color="#D0D037"/>
</linearGradient>
<linearGradient id="paint4_linear_13_98" x1="11.1699" y1="-3.56079" x2="3.24222" y2="35.4166" gradientUnits="userSpaceOnUse">
<stop stop-color="#3FB8EA"/>
<stop offset="1" stop-color="#C2D117"/>
</linearGradient>
<linearGradient id="paint5_linear_13_98" x1="18.0977" y1="2.42704" x2="22.3278" y2="11.9269" gradientUnits="userSpaceOnUse">
<stop stop-color="#BFE2E8"/>
<stop offset="1" stop-color="#C5E3DC"/>
</linearGradient>
<linearGradient id="paint6_linear_13_98" x1="12.5489" y1="8.38498" x2="12.5489" y2="16.2812" gradientUnits="userSpaceOnUse">
<stop stop-color="#5B6AAF"/>
<stop offset="0.7472" stop-color="#7BC08C"/>
<stop offset="1" stop-color="#7BC08C" stop-opacity="0"/>
</linearGradient>
<linearGradient id="paint7_linear_13_98" x1="5.69882" y1="2.62787" x2="5.69882" y2="19.6574" gradientUnits="userSpaceOnUse">
<stop stop-color="#5B6AAF"/>
<stop offset="1" stop-color="#8BC270" stop-opacity="0"/>
</linearGradient>
<linearGradient id="paint8_linear_13_98" x1="5.57713" y1="20.4182" x2="13.9431" y2="20.4182" gradientUnits="userSpaceOnUse">
<stop stop-color="#8AC279"/>
<stop offset="1" stop-color="#7BBF8A"/>
</linearGradient>
<linearGradient id="paint9_linear_13_98" x1="13.6101" y1="-0.545955" x2="13.6101" y2="23.5644" gradientUnits="userSpaceOnUse">
<stop stop-color="#693388"/>
<stop offset="1" stop-color="#3FB8EA"/>
</linearGradient>
<linearGradient id="paint10_linear_13_98" x1="23.7034" y1="4.33534" x2="23.7034" y2="13.3692" gradientUnits="userSpaceOnUse">
<stop offset="0.1042" stop-color="#233573"/>
<stop offset="1" stop-color="#1E768D"/>
</linearGradient>
<linearGradient id="paint11_linear_13_98" x1="23.5233" y1="11.1667" x2="23.7531" y2="17.832" gradientUnits="userSpaceOnUse">
<stop offset="0.3892" stop-color="#8AC279"/>
<stop offset="0.8952" stop-color="#FFD600"/>
</linearGradient>
<linearGradient id="paint12_linear_13_98" x1="22.324" y1="12.0268" x2="22.324" y2="-0.126229" gradientUnits="userSpaceOnUse">
<stop stop-color="#4E64A7"/>
<stop offset="1" stop-color="#2E2254"/>
</linearGradient>
</defs>
</svg>
