<svg width="42" height="74" viewBox="0 0 42 74" xmlns="http://www.w3.org/2000/svg">
    <path fill-rule="evenodd" clip-rule="evenodd" d="M29.4673 4.27661C24.6255 -0.775633 16.7389 -0.775635 11.8971 4.27661C7.10138 9.28086 7.10137 17.3605 11.8971 22.3648C16.7389 27.417 24.6255 27.417 29.4673 22.3648C34.263 17.3605 34.263 9.28086 29.4673 4.27661ZM41.113 54.6906C42.3743 42.9644 34.3526 32.2999 23.0397 30.8289C22.1647 30.7003 21.3119 30.7004 20.6165 30.7005L20.5627 30.7005C9.10039 30.7005 -0.10882 40.4345 0.000965614 52.2979C0.00410976 59.3962 3.46219 66.0234 9.13564 70.0104C9.74633 70.4396 10.5452 70.493 11.2076 70.1489C11.8699 69.8048 12.2856 69.1205 12.2856 68.3741V52.1787C12.2856 47.2797 16.0966 43.3454 20.6676 43.3454C25.2514 43.3454 29.0496 47.1837 29.0496 52.1787C29.0496 57.1335 25.1856 60.9027 20.6676 60.9027L20.6023 60.9027C20.3966 60.9026 20.2736 60.9026 20.154 60.9086C20.1394 60.9094 20.1258 60.9101 20.1119 60.911C20.095 60.912 20.0779 60.9132 20.0587 60.9144C19.934 60.9226 19.7227 60.9366 18.9254 60.9663C17.8506 61.0065 17 61.8894 17 62.965V71.5003C17 72.5069 17.7481 73.3566 18.7465 73.4842C30.2884 74.959 39.8558 66.2587 41.1127 54.6928L41.113 54.6906Z" fill="white"/>
</svg>
